<svg xmlns="http://www.w3.org/2000/svg" xmlns:xlink="http://www.w3.org/1999/xlink" width="500" zoomAndPan="magnify" viewBox="0 0 375 374.999991" height="500" preserveAspectRatio="xMidYMid meet" version="1.0"><defs><g/><clipPath id="886c39504f"><path d="M 46.019531 64.589844 L 328.769531 64.589844 L 328.769531 310.589844 L 46.019531 310.589844 Z M 46.019531 64.589844 " clip-rule="nonzero"/></clipPath></defs><g fill="#000000" fill-opacity="1"><g transform="translate(178.412102, 294.240391)"><g><path d="M 8.921875 -11.421875 L 8.921875 -10.28125 L 5.34375 -10.28125 L 5.34375 0 L 4 0 L 4 -10.28125 L 0.421875 -10.28125 L 0.421875 -11.421875 Z M 8.921875 -11.421875 "/></g></g></g><g fill="#000000" fill-opacity="1"><g transform="translate(187.511425, 294.240391)"><g><path d="M 8.453125 0 L 0.625 0 L 0.625 -1.21875 L 6.890625 -10.15625 L 6.84375 -10.3125 L 0.859375 -10.3125 L 0.859375 -11.421875 L 8.40625 -11.421875 L 8.40625 -10.21875 L 2.140625 -1.28125 L 2.1875 -1.109375 L 8.453125 -1.109375 Z M 8.453125 0 "/></g></g></g><g clip-path="url(#886c39504f)"><path fill="#002200" d="M 328.984375 310.257812 L 46.019531 310.257812 L 151.3125 127.886719 L 177.96875 174.0625 L 125.996094 264.085938 L 302.328125 264.085938 Z M 161.109375 110.914062 L 160.699219 111.617188 L 187.5 157.554688 L 240.324219 249.046875 L 293.640625 249.046875 L 213.894531 110.914062 L 297.113281 110.914062 L 323.765625 64.742188 L 46.019531 64.742188 L 72.746094 110.914062 Z M 161.109375 110.914062 " fill-opacity="1" fill-rule="nonzero"/></g></svg>